<svg version="1.1" xmlns="http://www.w3.org/2000/svg" viewBox="235.37 912.27 895.27 895.27" width="1024" height="1024">
<defs>
	<linearGradient id="Gradient1" gradientUnits="userSpaceOnUse" x1="780.817" y1="1193.11" x2="698.176" y2="1186.8">
		<stop class="stop0" offset="0" stop-opacity="1" stop-color="rgb(255,153,0)"/>
		<stop class="stop1" offset="1" stop-opacity="1" stop-color="rgb(255,238,15)"/>
	</linearGradient>
	<linearGradient id="Gradient6" gradientUnits="userSpaceOnUse" x1="394.998" y1="1462.06" x2="384.589" y2="1431.74">
		<stop class="stop0" offset="0" stop-opacity="1" stop-color="rgb(253,127,0)"/>
		<stop class="stop1" offset="1" stop-opacity="1" stop-color="rgb(255,191,6)"/>
	</linearGradient>
	<linearGradient id="Gradient7" gradientUnits="userSpaceOnUse" x1="470.137" y1="1433.22" x2="464.649" y2="1408.83">
		<stop class="stop0" offset="0" stop-opacity="1" stop-color="rgb(255,146,1)"/>
		<stop class="stop1" offset="1" stop-opacity="1" stop-color="rgb(255,195,6)"/>
	</linearGradient>
	<linearGradient id="Gradient8" gradientUnits="userSpaceOnUse" x1="851.541" y1="1371.86" x2="843.972" y2="1329.4">
		<stop class="stop0" offset="0" stop-opacity="1" stop-color="rgb(255,164,1)"/>
		<stop class="stop1" offset="1" stop-opacity="1" stop-color="rgb(255,214,5)"/>
	</linearGradient>
	<linearGradient id="Gradient9" gradientUnits="userSpaceOnUse" x1="936.11" y1="1425.31" x2="923.101" y2="1366.65">
		<stop class="stop0" offset="0" stop-opacity="1" stop-color="rgb(255,73,0)"/>
		<stop class="stop1" offset="1" stop-opacity="1" stop-color="rgb(255,173,3)"/>
	</linearGradient>
	<linearGradient id="Gradient10" gradientUnits="userSpaceOnUse" x1="552.834" y1="1427.27" x2="540.82" y2="1378.33">
		<stop class="stop0" offset="0" stop-opacity="1" stop-color="rgb(255,90,0)"/>
		<stop class="stop1" offset="1" stop-opacity="1" stop-color="rgb(255,183,3)"/>
	</linearGradient>
	<linearGradient id="Gradient11" gradientUnits="userSpaceOnUse" x1="637.267" y1="1413.97" x2="621.021" y2="1363.73">
		<stop class="stop0" offset="0" stop-opacity="1" stop-color="rgb(255,97,0)"/>
		<stop class="stop1" offset="1" stop-opacity="1" stop-color="rgb(255,195,3)"/>
	</linearGradient>
	<linearGradient id="Gradient12" gradientUnits="userSpaceOnUse" x1="813.051" y1="1369.12" x2="800.693" y2="1281.06">
		<stop class="stop0" offset="0" stop-opacity="1" stop-color="rgb(255,123,0)"/>
		<stop class="stop1" offset="1" stop-opacity="1" stop-color="rgb(255,240,4)"/>
	</linearGradient>
	<linearGradient id="Gradient13" gradientUnits="userSpaceOnUse" x1="756.088" y1="1380.44" x2="771.805" y2="1313.78">
		<stop class="stop0" offset="0" stop-opacity="1" stop-color="rgb(255,96,0)"/>
		<stop class="stop1" offset="1" stop-opacity="1" stop-color="rgb(255,134,0)"/>
	</linearGradient>
	<linearGradient id="Gradient14" gradientUnits="userSpaceOnUse" x1="674.8" y1="1336" x2="595.641" y2="1207.68">
		<stop class="stop0" offset="0" stop-opacity="1" stop-color="rgb(255,162,1)"/>
		<stop class="stop1" offset="1" stop-opacity="1" stop-color="rgb(254,229,3)"/>
	</linearGradient>
	<linearGradient id="Gradient15" gradientUnits="userSpaceOnUse" x1="485.584" y1="1409.29" x2="486.366" y2="1280.79">
		<stop class="stop0" offset="0" stop-opacity="1" stop-color="rgb(255,137,0)"/>
		<stop class="stop1" offset="1" stop-opacity="1" stop-color="rgb(254,229,2)"/>
	</linearGradient>
</defs>
<path fill="rgb(5,5,4)" d="M 650.013 1167.25 C 650.091 1195.74 655.934 1212.35 679.082 1230.58 C 680.956 1241.73 699.474 1247.44 703.756 1273.49 L 717 1273.69 C 717.063 1268.05 715.166 1242.52 715.822 1240.04 C 717.684 1245.31 718.837 1249.05 719.996 1254.58 C 721.051 1259.62 719.159 1271.28 722.409 1273.63 C 727.482 1273.84 730.083 1273.09 734.566 1274.9 L 736.552 1275.28 C 739.17 1271.55 738.215 1239.86 738.198 1233.2 C 752.578 1233.4 769.009 1234.25 783.098 1232.99 C 787.967 1233.19 787.806 1232.47 791.472 1234.77 C 792.85 1242.11 791.417 1262.73 791.939 1272.21 C 802.071 1273.04 822.672 1273.98 833.087 1273.43 C 834.248 1288.37 832.626 1305.14 833.378 1320.94 C 840.872 1321.13 866.958 1319.06 871.893 1322.76 C 876.021 1328.53 874.44 1343.84 874.784 1351.66 C 880.73 1348.16 881.234 1343.14 881.493 1336.67 C 882.221 1318.47 881.626 1306.37 890.052 1289.35 C 894.281 1305.64 898.861 1327.44 918.617 1330.54 C 902.148 1297.89 907.237 1263.19 937.863 1241.42 L 940.166 1239.21 L 941.73 1239.53 C 941.585 1246.47 939.96 1250.28 940.491 1258.28 C 942.415 1287.23 959.101 1311.89 969.494 1339.63 C 972.556 1331.06 976.304 1323.57 982.737 1316.94 L 985.404 1314.31 L 986.738 1314.93 C 987.983 1327.84 986.31 1335.3 991.806 1348.62 C 995.937 1358.64 1005.09 1369.93 1007.3 1379.99 C 1008.72 1386.46 1007.84 1400.47 1007.89 1407.69 C 1011.89 1400.16 1016.44 1392.91 1022.36 1386.7 C 1023.45 1394.95 1025.98 1409.95 1024.87 1417.49 C 1022.38 1439.44 1020 1449.13 1028.22 1469.89 C 1032.8 1456.26 1034.67 1441.33 1039.8 1426.98 C 1054.22 1469.15 1073.8 1482.44 1115.64 1492.45 C 1110.27 1493.21 1099.99 1490.43 1094.12 1490.05 C 1088.36 1490.36 1080.41 1488.41 1074.5 1488.02 C 1058.76 1487 1042.08 1483.75 1026.66 1482.7 C 1027.34 1498.1 1027.42 1513.33 1028.75 1528.72 C 1029.42 1536.53 1032.3 1560.96 1027.35 1566.71 C 1020.77 1570.91 1011.18 1570.02 1003.26 1570.08 C 1002.99 1582.62 1006.23 1611.65 997.754 1619.59 C 988.92 1623.38 829.368 1621.58 809.106 1621.58 L 478.203 1621.58 L 373.694 1621.67 C 356.558 1621.7 337.801 1622.49 320.892 1620.64 C 310.618 1619.52 313.585 1599.07 313.126 1592.84 C 311.348 1568.7 313.38 1556.21 323.29 1534.32 C 329.951 1519.62 338.741 1498.9 343.246 1483.57 C 325.236 1484.97 295.411 1490.4 278.477 1490.2 C 270.008 1491.78 258.933 1492.59 250.37 1493.17 C 294.561 1480.35 301.722 1484.44 329.068 1441.76 C 332.374 1451.3 334.678 1461.38 338.172 1471.43 L 339.826 1470.82 C 340.288 1454.85 344.967 1435.36 345.751 1419.04 C 345.872 1416.51 346.052 1415.86 347.963 1414.51 C 354.193 1418.08 357.375 1430.73 365.312 1430.62 L 366.566 1428.95 C 367.834 1425.23 366.891 1426.42 369.992 1424.35 C 365.686 1404.21 362.933 1385.19 378.575 1368.81 C 379.455 1375 379.922 1379.93 382.143 1385.84 C 386.234 1393.96 392.85 1403.72 402.789 1404.75 L 397.731 1390.64 C 388.507 1372.88 395.998 1348.37 407.572 1333.5 C 410.027 1330.78 412.603 1327.82 415.139 1325.21 C 413.098 1361.17 426.953 1361.28 442.655 1388.9 C 443.572 1382.56 443.817 1378.99 448.153 1373.97 L 449.595 1373.87 C 451.395 1376.32 451.163 1379.72 451.371 1382.95 C 452.152 1385.79 452.104 1387.72 454.058 1389.21 C 455.42 1386.96 455.706 1386.42 456.618 1383.96 C 459.633 1372.58 474.4 1363.55 483.74 1353.78 C 484.003 1347.13 486.258 1334.16 487.296 1327.12 C 491.287 1336.18 495.285 1346.39 503.517 1352.44 C 508.756 1356.3 518.519 1360.7 522.595 1353.35 C 521.431 1346.95 516.13 1340.49 514.172 1334.98 C 510.116 1323.56 510.535 1284.78 522.207 1279.38 C 525.217 1283.23 524.623 1299.13 532.338 1307.4 C 538.41 1313.9 541.131 1318.42 551.359 1319.69 L 552.502 1319.82 C 544.919 1302.96 542.46 1292.15 542.124 1273.57 C 542.086 1271.49 542.187 1269.42 542.426 1267.37 C 544.299 1250.27 550.045 1235.25 563.825 1224.15 L 566.397 1221.09 L 568.096 1221 C 569.29 1224.93 567.935 1233.26 567.955 1237.64 C 568.034 1254.44 573.812 1267.51 582.403 1281.54 C 584.183 1284.45 589.716 1293.82 590.531 1297.12 L 593.264 1301.39 C 591.91 1301.94 604.977 1274.91 607.658 1271.15 C 607.936 1284.08 618.251 1333.67 635.141 1304.57 C 635.637 1287.23 631.699 1274.5 629.081 1257.55 C 624.808 1231.16 627.54 1203.63 640.497 1179.94 L 641.264 1178.33 C 644.462 1173.74 646.176 1171.25 650.013 1167.25 z M 343.516 1595.38 C 344.798 1594.42 345.441 1592.82 345.186 1591.24 C 344.932 1589.66 343.821 1588.35 342.302 1587.84 C 340.784 1587.34 339.108 1587.71 337.953 1588.82 C 336.309 1590.4 336.176 1592.98 337.649 1594.72 C 339.123 1596.45 341.693 1596.74 343.516 1595.38 z"/>
<path fill="url(#Gradient15)" d="M 563.825 1224.15 L 566.397 1221.09 L 568.096 1221 C 569.29 1224.93 567.935 1233.26 567.955 1237.64 C 568.034 1254.44 573.812 1267.51 582.403 1281.54 C 584.183 1284.45 589.716 1293.82 590.531 1297.12 C 590.541 1300.72 590.439 1301.83 588.962 1305.12 C 591.879 1321.07 604.989 1332.48 611.558 1345.99 L 580.532 1346.13 L 563.838 1345.98 L 563.488 1372.09 C 537.146 1372.07 510.034 1371.71 483.755 1372.11 L 483.695 1403.09 C 476.872 1403.05 448.682 1401.7 444.517 1405.12 C 444.042 1409.19 444.743 1409.51 442.249 1411.81 C 440.496 1411.87 438.458 1412 436.731 1411.99 L 412.895 1411.89 C 408.557 1410.4 406.198 1407.82 402.789 1404.75 L 397.731 1390.64 C 388.507 1372.88 395.998 1348.37 407.572 1333.5 C 410.027 1330.78 412.603 1327.82 415.139 1325.21 C 413.098 1361.17 426.953 1361.28 442.655 1388.9 C 443.572 1382.56 443.817 1378.99 448.153 1373.97 L 449.595 1373.87 C 451.395 1376.32 451.163 1379.72 451.371 1382.95 C 452.152 1385.79 452.104 1387.72 454.058 1389.21 C 455.42 1386.96 455.706 1386.42 456.618 1383.96 C 459.633 1372.58 474.4 1363.55 483.74 1353.78 C 484.003 1347.13 486.258 1334.16 487.296 1327.12 C 491.287 1336.18 495.285 1346.39 503.517 1352.44 C 508.756 1356.3 518.519 1360.7 522.595 1353.35 C 521.431 1346.95 516.13 1340.49 514.172 1334.98 C 510.116 1323.56 510.535 1284.78 522.207 1279.38 C 525.217 1283.23 524.623 1299.13 532.338 1307.4 C 538.41 1313.9 541.131 1318.42 551.359 1319.69 L 552.502 1319.82 C 544.919 1302.96 542.46 1292.15 542.124 1273.57 C 542.086 1271.49 542.187 1269.42 542.426 1267.37 C 544.299 1250.27 550.045 1235.25 563.825 1224.15 z"/>
<path fill="rgb(254,232,15)" d="M 563.825 1224.15 L 566.397 1221.09 L 568.096 1221 C 569.29 1224.93 567.935 1233.26 567.955 1237.64 C 568.034 1254.44 573.812 1267.51 582.403 1281.54 C 584.183 1284.45 589.716 1293.82 590.531 1297.12 C 590.541 1300.72 590.439 1301.83 588.962 1305.12 C 591.879 1321.07 604.989 1332.48 611.558 1345.99 L 580.532 1346.13 C 582.804 1335.03 585.308 1325.92 582.918 1314.8 C 578.915 1323.91 585.047 1338.87 575.718 1344.91 C 565.537 1345.08 560.107 1326.9 552.502 1319.82 C 544.919 1302.96 542.46 1292.15 542.124 1273.57 C 542.086 1271.49 542.187 1269.42 542.426 1267.37 C 544.299 1250.27 550.045 1235.25 563.825 1224.15 z"/>
<path fill="rgb(254,158,1)" d="M 563.825 1224.15 L 566.397 1221.09 L 568.096 1221 C 569.29 1224.93 567.935 1233.26 567.955 1237.64 C 568.034 1254.44 573.812 1267.51 582.403 1281.54 C 584.183 1284.45 589.716 1293.82 590.531 1297.12 C 590.541 1300.72 590.439 1301.83 588.962 1305.12 C 591.879 1321.07 604.989 1332.48 611.558 1345.99 L 580.532 1346.13 C 582.804 1335.03 585.308 1325.92 582.918 1314.8 C 582.669 1306.22 575.115 1285.68 569.429 1278.65 L 567.599 1278.33 C 564.179 1269.72 562.498 1267.19 553.059 1264.12 C 549.853 1263.07 548.709 1263.25 545.922 1264.76 C 544.059 1269.89 544.372 1274.67 544.485 1280.14 L 542.124 1273.57 C 542.086 1271.49 542.187 1269.42 542.426 1267.37 C 544.299 1250.27 550.045 1235.25 563.825 1224.15 z"/>
<path fill="rgb(254,254,77)" d="M 563.825 1224.15 C 563.526 1228.63 562.296 1232.68 561.473 1237.09 C 558.466 1253.22 562.625 1264 569.429 1278.65 L 567.599 1278.33 C 564.179 1269.72 562.498 1267.19 553.059 1264.12 C 549.853 1263.07 548.709 1263.25 545.922 1264.76 C 544.059 1269.89 544.372 1274.67 544.485 1280.14 L 542.124 1273.57 C 542.086 1271.49 542.187 1269.42 542.426 1267.37 C 544.299 1250.27 550.045 1235.25 563.825 1224.15 z"/>
<path fill="rgb(254,232,15)" d="M 407.572 1333.5 C 410.447 1338.95 408.255 1349.86 410.785 1358.08 C 413.612 1367.25 423.846 1376.29 426.507 1382.02 C 429.111 1385.65 430.154 1387.29 432.228 1391.28 L 435.761 1402.04 L 436.731 1411.99 L 412.895 1411.89 C 408.557 1410.4 406.198 1407.82 402.789 1404.75 L 397.731 1390.64 C 388.507 1372.88 395.998 1348.37 407.572 1333.5 z"/>
<path fill="rgb(250,187,11)" d="M 426.507 1382.02 C 429.111 1385.65 430.154 1387.29 432.228 1391.28 L 435.761 1402.04 L 436.731 1411.99 L 412.895 1411.89 C 408.557 1410.4 406.198 1407.82 402.789 1404.75 L 397.731 1390.64 C 401.321 1394.36 401.709 1396.45 403.469 1401.22 C 413.344 1398.31 422.818 1398 433.017 1397.18 C 430.411 1392.19 427.655 1387.54 426.507 1382.02 z"/>
<path fill="rgb(254,129,0)" d="M 432.228 1391.28 C 435.92 1392.61 434.711 1391.71 437.074 1394.53 C 437.77 1397.46 437.843 1399.59 435.761 1402.04 L 432.228 1391.28 z"/>
<path fill="url(#Gradient14)" d="M 650.013 1167.25 C 650.091 1195.74 655.934 1212.35 679.082 1230.58 C 680.956 1241.73 699.474 1247.44 703.756 1273.49 L 717 1273.69 C 717.063 1268.05 715.166 1242.52 715.822 1240.04 C 717.684 1245.31 718.837 1249.05 719.996 1254.58 C 721.051 1259.62 719.159 1271.28 722.409 1273.63 C 727.482 1273.84 730.083 1273.09 734.566 1274.9 C 719.914 1275.53 704.855 1274.9 690.16 1275 C 690.16 1288.34 690.319 1301.67 690.636 1315 C 676.48 1314.88 660.837 1314.43 646.808 1314.76 C 646.771 1328.86 646.877 1342.96 647.127 1357.06 L 612.48 1357.06 C 612.545 1353.46 613.089 1349.02 611.558 1345.99 C 604.989 1332.48 591.879 1321.07 588.962 1305.12 C 590.439 1301.83 590.541 1300.72 590.531 1297.12 L 593.264 1301.39 C 591.91 1301.94 604.977 1274.91 607.658 1271.15 C 607.936 1284.08 618.251 1333.67 635.141 1304.57 C 635.637 1287.23 631.699 1274.5 629.081 1257.55 C 624.808 1231.16 627.54 1203.63 640.497 1179.94 L 641.264 1178.33 C 644.462 1173.74 646.176 1171.25 650.013 1167.25 z"/>
<path fill="rgb(254,232,15)" d="M 641.264 1178.33 L 643.917 1179.34 C 645.738 1186.36 646.283 1200.65 649.478 1207.14 C 656.777 1221.97 671.194 1235.01 675.497 1251.94 C 681.672 1260.43 681.151 1298.87 672.576 1304.87 C 667.986 1303.39 641.468 1260.36 633.367 1257.16 C 631.737 1256.52 630.539 1256.9 629.081 1257.55 C 624.808 1231.16 627.54 1203.63 640.497 1179.94 L 641.264 1178.33 z"/>
<path fill="rgb(254,254,77)" d="M 641.264 1178.33 L 643.917 1179.34 C 645.738 1186.36 646.283 1200.65 649.478 1207.14 C 656.777 1221.97 671.194 1235.01 675.497 1251.94 C 674.584 1250.92 671.648 1246.3 670.918 1246.41 C 658.984 1248.27 653.859 1248.21 643.048 1243.26 C 639.544 1244.02 643.233 1244.86 640.943 1248 C 637.29 1244.53 636.514 1213.97 636.975 1207.43 C 637.546 1199.33 639.976 1189.79 640.439 1181.15 L 640.497 1179.94 L 641.264 1178.33 z"/>
<path fill="rgb(252,208,9)" d="M 937.863 1241.42 L 940.166 1239.21 L 941.73 1239.53 C 941.585 1246.47 939.96 1250.28 940.491 1258.28 C 942.415 1287.23 959.101 1311.89 969.494 1339.63 C 972.556 1331.06 976.304 1323.57 982.737 1316.94 C 982.55 1323.11 974.793 1329.67 972.377 1335.85 C 971.1 1339.12 972.365 1345.04 971.312 1346.46 L 969.69 1343.23 C 968.792 1345.55 968.559 1350.78 969.612 1352.92 L 971.337 1352.79 C 974.414 1359 985.061 1381.04 989.539 1384.49 L 994.262 1385.26 C 987.599 1386.52 965.445 1385.84 958.559 1385.14 C 955.441 1385.06 956.6 1385.67 954.716 1383.84 C 953.641 1378.39 954.243 1367.36 954.265 1361.12 C 943.78 1359.46 933.604 1360.53 922.787 1359.09 C 929.396 1357.99 934.947 1359.35 942.564 1357.95 L 931.223 1357.14 C 926.616 1350.8 934.286 1341.5 918.617 1330.54 C 902.148 1297.89 907.237 1263.19 937.863 1241.42 z"/>
<path fill="rgb(254,129,0)" d="M 937.863 1241.42 L 940.166 1239.21 L 941.73 1239.53 C 941.585 1246.47 939.96 1250.28 940.491 1258.28 C 942.415 1287.23 959.101 1311.89 969.494 1339.63 C 972.556 1331.06 976.304 1323.57 982.737 1316.94 C 982.55 1323.11 974.793 1329.67 972.377 1335.85 C 971.1 1339.12 972.365 1345.04 971.312 1346.46 L 969.69 1343.23 C 968.792 1345.55 968.559 1350.78 969.612 1352.92 L 971.337 1352.79 C 974.414 1359 985.061 1381.04 989.539 1384.49 L 994.262 1385.26 C 987.599 1386.52 965.445 1385.84 958.559 1385.14 C 955.441 1385.06 956.6 1385.67 954.716 1383.84 C 953.641 1378.39 954.243 1367.36 954.265 1361.12 C 943.78 1359.46 933.604 1360.53 922.787 1359.09 C 929.396 1357.99 934.947 1359.35 942.564 1357.95 C 944.812 1358.51 945.925 1359.08 947.989 1358.12 C 958.612 1325.77 949.41 1320.6 936.934 1291.89 C 934.706 1286.77 933.627 1274.41 932.032 1268.2 C 930.456 1262.06 939.219 1246.23 937.863 1241.42 z"/>
<path fill="rgb(250,50,4)" d="M 969.612 1352.92 L 971.337 1352.79 C 974.414 1359 985.061 1381.04 989.539 1384.49 L 994.262 1385.26 C 987.599 1386.52 965.445 1385.84 958.559 1385.14 C 963.635 1384.63 973.155 1384.98 978.564 1385.03 C 972.498 1372.72 971.137 1366.06 969.612 1352.92 z"/>
<path fill="rgb(253,76,1)" d="M 982.737 1316.94 L 985.404 1314.31 L 986.738 1314.93 C 987.983 1327.84 986.31 1335.3 991.806 1348.62 C 995.937 1358.64 1005.09 1369.93 1007.3 1379.99 C 1008.72 1386.46 1007.84 1400.47 1007.89 1407.69 C 1011.89 1400.16 1016.44 1392.91 1022.36 1386.7 C 1023.45 1394.95 1025.98 1409.95 1024.87 1417.49 C 1023.45 1419.34 1021.59 1421.54 1021.95 1424.01 C 1023.35 1433.72 1002.48 1441.45 995.921 1436.71 L 994.75 1432.75 C 994.132 1416.94 994.914 1401.14 994.262 1385.26 L 989.539 1384.49 C 985.061 1381.04 974.414 1359 971.337 1352.79 L 969.612 1352.92 C 968.559 1350.78 968.792 1345.55 969.69 1343.23 L 971.312 1346.46 C 972.365 1345.04 971.1 1339.12 972.377 1335.85 C 974.793 1329.67 982.55 1323.11 982.737 1316.94 z"/>
<path fill="rgb(254,158,1)" d="M 874.784 1351.66 C 880.73 1348.16 881.234 1343.14 881.493 1336.67 C 882.221 1318.47 881.626 1306.37 890.052 1289.35 C 894.281 1305.64 898.861 1327.44 918.617 1330.54 C 934.286 1341.5 926.616 1350.8 931.223 1357.14 L 942.564 1357.95 C 934.947 1359.35 929.396 1357.99 922.787 1359.09 C 917.589 1359.35 910.737 1357.59 906.647 1359.8 C 904.386 1363.66 905.197 1364.56 905.136 1369.72 L 874.172 1369.22 C 874.109 1362.66 874.164 1358.17 874.784 1351.66 z"/>
<path fill="rgb(250,187,11)" d="M 369.992 1424.35 C 365.686 1404.21 362.933 1385.19 378.575 1368.81 C 379.455 1375 379.922 1379.93 382.143 1385.84 C 386.234 1393.96 392.85 1403.72 402.789 1404.75 C 406.198 1407.82 408.557 1410.4 412.895 1411.89 C 408.696 1412.09 408.313 1411.38 405.502 1413.68 C 404.274 1417.35 404.818 1421.4 404.986 1425.36 C 397.702 1425.51 380.028 1426.19 373.794 1425.07 C 373.133 1425.08 370.786 1424.52 369.992 1424.35 z"/>
<path fill="rgb(254,158,1)" d="M 379.554 1393.74 C 379.202 1390.47 378.521 1387.76 379.706 1384.79 L 382.143 1385.84 C 386.234 1393.96 392.85 1403.72 402.789 1404.75 C 406.198 1407.82 408.557 1410.4 412.895 1411.89 C 408.696 1412.09 408.313 1411.38 405.502 1413.68 C 404.274 1417.35 404.818 1421.4 404.986 1425.36 C 397.702 1425.51 380.028 1426.19 373.794 1425.07 C 382.302 1423.82 393.044 1425.92 402.015 1423.02 L 402.499 1421.74 C 402.007 1421.68 398.93 1421.31 398.818 1421.13 C 392.875 1411.7 385.834 1402.99 379.554 1393.74 z"/>
<path fill="rgb(224,16,8)" d="M 1028.22 1469.89 C 1032.8 1456.26 1034.67 1441.33 1039.8 1426.98 C 1054.22 1469.15 1073.8 1482.44 1115.64 1492.45 C 1110.27 1493.21 1099.99 1490.43 1094.12 1490.05 C 1081.95 1485.94 1059.63 1482.34 1046.48 1479.87 C 1035.78 1469.77 1035.99 1474.96 1028.22 1469.89 z"/>
<path fill="rgb(224,16,8)" d="M 994.75 1432.75 L 995.921 1436.71 C 1002.48 1441.45 1023.35 1433.72 1021.95 1424.01 C 1021.59 1421.54 1023.45 1419.34 1024.87 1417.49 C 1022.38 1439.44 1020 1449.13 1028.22 1469.89 C 1035.99 1474.96 1035.78 1469.77 1046.48 1479.87 C 1038.39 1478.62 1031.15 1475.52 1023.18 1473.73 C 1013.67 1471.6 1003.71 1470.16 994.062 1468.67 C 994.507 1456.71 994.736 1444.73 994.75 1432.75 z"/>
<path fill="rgb(250,50,4)" d="M 329.068 1441.76 C 332.374 1451.3 334.678 1461.38 338.172 1471.43 C 332.613 1475.99 330.013 1473.94 325.084 1479.54 C 313.961 1481.72 287.933 1486.37 278.477 1490.2 C 270.008 1491.78 258.933 1492.59 250.37 1493.17 C 294.561 1480.35 301.722 1484.44 329.068 1441.76 z"/>
<path fill="rgb(253,76,1)" d="M 339.826 1470.82 C 340.288 1454.85 344.967 1435.36 345.751 1419.04 C 345.872 1416.51 346.052 1415.86 347.963 1414.51 C 354.193 1418.08 357.375 1430.73 365.312 1430.62 L 366.566 1428.95 C 367.5 1433.45 367.869 1435.12 368 1439.77 C 360.4 1444.14 352.769 1470.21 340.543 1471.16 L 339.826 1470.82 z"/>
<path fill="rgb(224,16,8)" d="M 339.826 1470.82 L 340.543 1471.16 C 352.769 1470.21 360.4 1444.14 368 1439.77 L 368.056 1467.38 C 358.727 1469.22 354.07 1472.1 345.365 1475.22 C 340.013 1477.14 330.913 1478.71 325.084 1479.54 C 330.013 1473.94 332.613 1475.99 338.172 1471.43 L 339.826 1470.82 z"/>
<path fill="url(#Gradient13)" d="M 747.914 1240.08 C 758.838 1240.13 771.274 1239.92 782.053 1240.59 C 782.002 1264.62 781.757 1288.66 781.319 1312.69 L 780.822 1378.48 C 779.791 1400.67 780.263 1425.73 780.221 1448.14 C 769.132 1447.48 758.036 1446.93 746.936 1446.49 C 747.316 1403.33 746.717 1360.03 747.334 1316.97 C 747.274 1306.35 747.053 1295.45 747.783 1284.88 C 747.607 1269.95 747.651 1255.02 747.914 1240.08 z"/>
<path fill="rgb(252,208,9)" d="M 747.914 1240.08 C 758.838 1240.13 771.274 1239.92 782.053 1240.59 C 782.002 1264.62 781.757 1288.66 781.319 1312.69 C 774.801 1314.94 756.654 1316.68 748.299 1318.41 C 748.286 1307.47 748.491 1295.73 747.783 1284.88 C 747.607 1269.95 747.651 1255.02 747.914 1240.08 z"/>
<path fill="rgb(224,16,8)" d="M 747.334 1316.97 C 748.493 1335.92 747.618 1362.33 747.889 1381.95 C 753.865 1381.98 774.761 1382.54 779.526 1381.14 L 780.822 1378.48 C 779.791 1400.67 780.263 1425.73 780.221 1448.14 C 769.132 1447.48 758.036 1446.93 746.936 1446.49 C 747.316 1403.33 746.717 1360.03 747.334 1316.97 z"/>
<path fill="rgb(254,254,254)" d="M 759.43 1473.46 C 782.503 1473.15 810.873 1473.84 813.81 1503.31 C 816.94 1534.7 807.861 1546.13 776.512 1549.2 C 752.88 1549.97 721.887 1549.84 720.047 1518.89 C 718.191 1487.68 727.321 1475.09 759.43 1473.46 z"/>
<path fill="rgb(5,5,4)" d="M 757.586 1491.15 C 766.328 1490.72 775.234 1489.65 783.17 1493.97 C 787.404 1496.26 790.533 1500.17 791.849 1504.8 C 793.577 1510.82 792.773 1517.29 789.623 1522.71 C 786.466 1528.16 783.718 1529.23 778.137 1530.85 C 771.026 1531.28 756.528 1532.12 750.366 1529.06 C 739.622 1523.7 740.847 1505.99 746.381 1497.24 C 749.079 1492.97 753.048 1492.26 757.586 1491.15 z"/>
<path fill="rgb(254,254,254)" d="M 823.271 1474.32 L 853.079 1474.7 C 860.113 1485.7 871.948 1502.98 877.546 1514.07 C 885.065 1503.65 895.56 1485.99 902.242 1474.89 C 911.934 1475.5 921.638 1475.91 931.347 1476.11 C 931.113 1500.75 931.313 1525.39 931.946 1550.02 L 910.029 1549.14 L 910.012 1519.75 L 909.899 1500.01 C 874.164 1557.98 881.853 1557.2 845.981 1500.7 C 845.966 1516.65 846.031 1532.6 846.177 1548.56 C 838.943 1548.13 831.527 1548.31 824.267 1548.37 C 824.442 1523.68 824.11 1498.99 823.271 1474.32 z"/>
<path fill="rgb(254,254,254)" d="M 476.321 1474.86 L 491.814 1474.69 C 497.276 1489.65 504.959 1507.9 509.41 1522.68 C 514.72 1507.71 519.803 1490.07 524.575 1474.72 L 547.965 1474.77 C 544.15 1485.36 540.261 1495.92 536.296 1506.45 C 530.966 1520.68 525.556 1534.88 520.066 1549.05 L 501.013 1549.35 C 496.627 1540.83 486.743 1514.25 484.002 1504.6 C 479.003 1520.32 473.474 1534.78 467.679 1550.24 L 446.164 1550.51 C 438.861 1527.19 426.6 1501.84 418.916 1476.89 C 424.537 1476.08 433.176 1475.82 439.049 1475.47 L 441.438 1475.2 C 444.684 1477.81 456.682 1518.98 458.1 1525.64 C 463.157 1509.65 470.502 1490.88 476.321 1474.86 z"/>
<path fill="rgb(254,254,254)" d="M 385.734 1477.61 C 389.357 1477.28 393.41 1477.12 397.076 1476.9 C 409.732 1498.78 422.457 1526.84 435.548 1550.42 L 410.576 1551.07 C 408.456 1546.29 406.241 1541.55 403.934 1536.86 C 395.874 1537.66 387.676 1537.94 379.578 1538.32 L 361.812 1538.56 C 359.011 1542.93 357.197 1547.23 355.056 1551.94 L 331.836 1552.15 C 340.411 1529.52 358.575 1500.96 365.626 1478.81 L 385.734 1477.61 z"/>
<path fill="rgb(5,5,4)" d="M 382.2 1493.59 C 385.79 1496.78 393.492 1516.22 395.598 1521.3 L 382.354 1521.92 L 368.655 1522.4 C 373.002 1514.31 377.856 1502.46 382.2 1493.59 z"/>
<path fill="rgb(254,254,254)" d="M 553.225 1475.02 C 576.592 1474.47 601.179 1474.78 624.64 1474.72 L 624.532 1492.82 C 615.983 1492.86 580.38 1491.78 576.535 1494.8 C 576.291 1498.19 575.942 1499.19 577.205 1502.21 C 582.242 1503.42 612.572 1502.75 620.176 1502.71 L 620.514 1519.93 L 589.394 1519.95 C 582.092 1519.83 579.239 1518.36 575.263 1524.79 C 575.647 1528.48 575.03 1527.17 577.294 1529.96 C 587.551 1531.47 613.736 1530.72 625.955 1530.72 L 625.968 1549.07 C 602.03 1548.9 577.647 1549.28 553.675 1549.41 L 553.225 1475.02 z"/>
<path fill="rgb(254,254,254)" d="M 944.161 1476.96 C 964.983 1476.97 995.184 1478.39 1015.97 1479.8 L 1015.98 1497.36 C 1003.79 1497.06 980.063 1494.54 969.348 1495.89 L 968.224 1497.48 C 967.938 1500.51 967.635 1501.58 968.381 1504.46 C 974.215 1508.28 1002.41 1507.91 1011 1508.07 L 1010.98 1524.01 C 1000.71 1524.1 987.633 1523.1 977.172 1522.57 C 973.912 1522.29 972.089 1521.79 969.171 1523.18 C 967.095 1526.18 967.925 1530.65 968.099 1534.62 C 984.749 1534.81 1000.92 1536.04 1017.97 1536.11 L 1017.97 1554.61 C 993.655 1553.77 969.413 1552.2 945.097 1551.66 C 944.98 1526.76 944.22 1501.96 944.161 1476.96 z"/>
<path fill="rgb(254,254,254)" d="M 656.606 1474.23 C 676.541 1472.85 687.556 1473.66 707.188 1477.41 C 707.707 1482.89 707.596 1489.17 707.635 1494.74 C 696.358 1493.05 662.784 1485.16 657.65 1496.54 C 663.204 1508.19 724.324 1492.68 711.791 1535.15 C 709.162 1544.06 701.629 1545.68 693.824 1547.74 C 677.118 1551.48 656.226 1548.11 639.64 1545.68 L 639.597 1528.55 C 649.079 1530.42 678.948 1533.49 687.962 1531.41 C 690.567 1529.31 690.69 1529.26 691.822 1526.2 C 685.347 1514.92 639.361 1526.74 635.724 1502.6 C 633.004 1484.53 640.344 1478.3 656.606 1474.23 z"/>
<path fill="rgb(224,16,8)" d="M 700.262 1357.89 C 702.11 1358.83 731.373 1355.17 736.114 1354.91 C 736.004 1385.12 735.601 1416 735.924 1446.15 L 700.334 1445.75 L 700.262 1357.89 z"/>
<path fill="url(#Gradient12)" d="M 791.249 1280.23 C 801.643 1280.73 813.5 1280.51 824.011 1280.55 C 824.014 1303.85 823.862 1327.15 823.556 1350.44 L 823.44 1377.46 C 813.943 1377.16 800.008 1376.13 790.972 1376.91 L 791.02 1365.27 L 791.249 1280.23 z"/>
<path fill="rgb(254,111,0)" d="M 791.02 1365.27 C 792.344 1367.52 791.837 1368.16 793.776 1370.3 C 798.418 1368.07 815.865 1368.12 821.626 1368 C 822.928 1365.11 822.629 1355.19 823.556 1350.44 L 823.44 1377.46 C 813.943 1377.16 800.008 1376.13 790.972 1376.91 L 791.02 1365.27 z"/>
<path fill="rgb(254,158,1)" d="M 571.871 1353.32 C 582.609 1353.25 593.348 1353.29 604.086 1353.44 C 604.307 1366.93 604.26 1380.42 603.945 1393.9 C 604.178 1400.32 604.298 1406.75 604.307 1413.17 L 604.361 1447.78 L 572.508 1448.39 L 572.298 1402.49 L 572.204 1395.38 C 571.624 1382.45 571.936 1366.48 571.871 1353.32 z"/>
<path fill="rgb(224,16,8)" d="M 572.298 1402.49 L 573.008 1414.28 C 582.322 1413.73 595.122 1412.76 604.307 1413.17 L 604.361 1447.78 L 572.508 1448.39 L 572.298 1402.49 z"/>
<path fill="rgb(254,111,0)" d="M 603.945 1393.9 C 604.178 1400.32 604.298 1406.75 604.307 1413.17 C 595.122 1412.76 582.322 1413.73 573.008 1414.28 L 572.298 1402.49 L 572.204 1395.38 C 574.203 1400.08 574.05 1405.68 574.259 1410.84 C 577.29 1415.22 592.844 1404.84 602.292 1408.31 C 603.459 1406.6 602.812 1398 603.945 1393.9 z"/>
<path fill="url(#Gradient11)" d="M 612.906 1364.09 L 647.077 1364.29 C 647.031 1381.49 647.374 1400.26 646.903 1417.32 C 647.287 1426.08 646.985 1437.08 646.99 1446.02 C 636.004 1446.36 625.013 1446.54 614.021 1446.57 C 613.159 1436.92 613.216 1427.79 613.163 1418.11 L 612.906 1364.09 z"/>
<path fill="rgb(224,16,8)" d="M 613.163 1418.11 C 616.706 1419.7 623.091 1419.15 626.794 1418.3 C 632.344 1418.21 640.834 1418.36 646.048 1417.33 L 646.903 1417.32 C 647.287 1426.08 646.985 1437.08 646.99 1446.02 C 636.004 1446.36 625.013 1446.54 614.021 1446.57 C 613.159 1436.92 613.216 1427.79 613.163 1418.11 z"/>
<path fill="rgb(254,111,0)" d="M 626.794 1418.3 L 625.439 1417.72 C 634.094 1416.91 639.218 1409.66 644.612 1411.79 L 646.048 1417.33 C 640.834 1418.36 632.344 1418.21 626.794 1418.3 z"/>
<path fill="rgb(250,187,11)" d="M 699.93 1282.07 L 736.462 1282.25 C 735.873 1306.17 736.142 1330.93 736.114 1354.91 C 731.373 1355.17 702.11 1358.83 700.262 1357.89 C 699.645 1333.17 700.008 1306.91 699.93 1282.07 z"/>
<path fill="rgb(250,187,11)" d="M 413.601 1568.09 C 442.352 1567.35 472.544 1564.94 501.849 1564.03 C 581.432 1561.66 661.055 1560.84 740.67 1561.57 C 782.516 1562.08 824.351 1563.24 866.161 1565.05 C 884.575 1565.85 914.388 1568.53 931.691 1568 C 935.423 1567.86 948.602 1568.2 951.325 1570.19 C 945.259 1571.78 912.777 1571.41 906.633 1570.14 C 896.325 1569.57 885.65 1569.81 875.29 1569.5 C 725.674 1565 576.049 1567.74 426.505 1570.15 C 414.656 1571.29 401.91 1570.69 389.914 1571.04 L 389.945 1569.03 C 397.708 1569.06 405.019 1567.96 413.601 1568.09 z"/>
<path fill="rgb(80,49,12)" d="M 931.691 1568 C 935.423 1567.86 948.602 1568.2 951.325 1570.19 C 945.259 1571.78 912.777 1571.41 906.633 1570.14 C 912.83 1570.08 931.545 1570.57 936.182 1569.44 L 931.691 1568 z"/>
<path fill="rgb(128,90,23)" d="M 389.945 1569.03 C 397.708 1569.06 405.019 1567.96 413.601 1568.09 L 408.476 1569.38 C 410.747 1570.39 422.595 1569.84 426.505 1570.15 C 414.656 1571.29 401.91 1570.69 389.914 1571.04 L 389.945 1569.03 z"/>
<path fill="rgb(253,76,1)" d="M 864.939 1372.85 C 864.916 1386.89 864.725 1400.93 864.369 1414.96 L 864.122 1454.22 C 853.583 1453.61 842.653 1452.62 832.051 1451.89 C 832.179 1430.43 831.965 1407.98 832.718 1386.62 L 832.866 1376.6 C 843.078 1374.89 854.644 1373.27 864.939 1372.85 z"/>
<path fill="rgb(224,16,8)" d="M 832.051 1451.89 C 832.179 1430.43 831.965 1407.98 832.718 1386.62 C 833.12 1396.04 833.262 1405.48 833.144 1414.91 L 864.369 1414.96 L 864.122 1454.22 C 853.583 1453.61 842.653 1452.62 832.051 1451.89 z"/>
<path fill="rgb(254,111,0)" d="M 874.145 1375.98 L 905.132 1376.05 C 905.091 1392.31 904.914 1408.8 905.052 1425.05 L 904.772 1457.88 C 894.259 1456.72 884.687 1456.12 874.114 1455.54 L 874.279 1399.63 C 874.233 1391.82 874.075 1383.76 874.145 1375.98 z"/>
<path fill="rgb(224,16,8)" d="M 874.279 1399.63 C 874.629 1408.05 874.916 1416.48 875.139 1424.91 C 885.021 1424.85 895.205 1424.65 905.052 1425.05 L 904.772 1457.88 C 894.259 1456.72 884.687 1456.12 874.114 1455.54 L 874.279 1399.63 z"/>
<path fill="rgb(224,16,8)" d="M 790.972 1376.91 C 800.008 1376.13 813.943 1377.16 823.44 1377.46 L 823.379 1398.2 C 824.298 1413.34 823.555 1435.24 823.554 1450.99 C 813.288 1450.49 800.031 1450.22 790.032 1449.2 L 790.824 1399.09 L 790.972 1376.91 z"/>
<path fill="rgb(253,76,1)" d="M 790.972 1376.91 C 800.008 1376.13 813.943 1377.16 823.44 1377.46 L 823.379 1398.2 C 818.059 1399.4 797.674 1398.86 790.824 1399.09 L 790.972 1376.91 z"/>
<path fill="rgb(253,76,1)" d="M 954.57 1391.8 L 985.804 1392.1 L 985.748 1402.77 C 986.321 1423.75 985.86 1446.39 985.805 1467.5 C 975.202 1466.14 964.585 1464.9 953.955 1463.78 C 954.269 1441.2 953.275 1413.79 954.57 1391.8 z"/>
<path fill="rgb(224,16,8)" d="M 953.955 1463.78 C 954.269 1441.2 953.275 1413.79 954.57 1391.8 L 955.302 1438.74 C 962.346 1438.5 980.309 1439.92 984.056 1437.08 C 985.858 1433.96 985.44 1409.19 985.748 1402.77 C 986.321 1423.75 985.86 1446.39 985.805 1467.5 C 975.202 1466.14 964.585 1464.9 953.955 1463.78 z"/>
<path fill="url(#Gradient10)" d="M 531.646 1378.81 C 537.96 1378.71 558.845 1377.66 562.986 1380.13 L 563.292 1382.75 C 564.555 1402.87 563.938 1428.63 563.991 1449.16 C 553.33 1449.89 542.656 1450.41 531.975 1450.7 L 531.917 1429.98 L 531.646 1378.81 z"/>
<path fill="rgb(224,16,8)" d="M 563.292 1382.75 C 564.555 1402.87 563.938 1428.63 563.991 1449.16 C 553.33 1449.89 542.656 1450.41 531.975 1450.7 L 531.917 1429.98 C 542.419 1429.06 552.941 1428.37 563.474 1427.91 C 562.938 1413.87 563.303 1396.99 563.292 1382.75 z"/>
<path fill="rgb(254,158,1)" d="M 491.787 1378.54 C 501.868 1378.37 511.951 1378.45 522.027 1378.78 L 522.286 1410.67 C 523.063 1424.19 522.881 1438.28 522.907 1451.87 C 512.637 1452.2 502.376 1452.75 492.128 1453.49 L 492.082 1432.94 L 491.787 1378.54 z"/>
<path fill="rgb(224,16,8)" d="M 522.286 1410.67 C 523.063 1424.19 522.881 1438.28 522.907 1451.87 C 512.637 1452.2 502.376 1452.75 492.128 1453.49 L 492.082 1432.94 C 498.735 1433 513.321 1430.93 522.001 1430.59 C 522.043 1423.95 522.138 1417.31 522.286 1410.67 z"/>
<path fill="rgb(250,187,11)" d="M 656.103 1322.45 C 667.681 1322.28 679.261 1322.28 690.839 1322.46 L 690.707 1337.48 L 691.003 1385.25 C 679.399 1385.82 667.786 1386.14 656.169 1386.22 C 656.074 1374.39 656.093 1362.56 656.225 1350.74 C 655.769 1342.56 656.116 1330.89 656.103 1322.45 z"/>
<path fill="rgb(254,111,0)" d="M 657.65 1374.51 C 698.449 1373.79 686.677 1373.78 690.57 1338.67 L 690.707 1337.48 L 691.003 1385.25 C 679.399 1385.82 667.786 1386.14 656.169 1386.22 C 656.074 1374.39 656.093 1362.56 656.225 1350.74 L 657.65 1374.51 z"/>
<path fill="rgb(224,16,8)" d="M 656.169 1386.22 C 667.786 1386.14 679.399 1385.82 691.003 1385.25 L 690.846 1445.71 C 679.496 1445.52 667.634 1445.8 656.242 1445.91 C 655.737 1426.64 656.158 1405.62 656.169 1386.22 z"/>
<path fill="url(#Gradient9)" d="M 914.031 1366.32 L 945.089 1366.47 C 945.075 1386.12 945.394 1406.81 944.964 1426.38 C 934.644 1425.89 924.338 1425.16 914.054 1424.17 L 914.031 1366.32 z"/>
<path fill="url(#Gradient8)" d="M 833.008 1329.33 L 865.044 1329.49 L 864.939 1372.85 C 854.644 1373.27 843.078 1374.89 832.866 1376.6 C 832.726 1360.84 832.773 1345.09 833.008 1329.33 z"/>
<path fill="url(#Gradient7)" d="M 452.83 1409.46 C 458.083 1409.39 480.731 1408.13 483.216 1410.94 C 484.021 1424.7 483.703 1439.95 483.688 1453.85 C 478.558 1454.21 456.859 1456.14 453.164 1455.47 C 452.315 1451.5 452.618 1448.49 452.793 1444.49 L 452.695 1437.95 L 452.83 1409.46 z"/>
<path fill="rgb(254,111,0)" d="M 483.216 1410.94 C 484.021 1424.7 483.703 1439.95 483.688 1453.85 C 478.558 1454.21 456.859 1456.14 453.164 1455.47 C 452.315 1451.5 452.618 1448.49 452.793 1444.49 L 452.695 1437.95 C 457.325 1436.03 477.194 1433.9 482.994 1433.83 C 482.778 1425.65 482.85 1419.12 483.216 1410.94 z"/>
<path fill="rgb(254,129,0)" d="M 452.695 1437.95 C 457.325 1436.03 477.194 1433.9 482.994 1433.83 C 482.849 1435.51 483.017 1438.08 482.007 1438.77 C 475.382 1443.31 458.282 1440.32 452.793 1444.49 L 452.695 1437.95 z"/>
<path fill="rgb(254,158,1)" d="M 431.745 1418.48 L 443.991 1418.5 L 444.013 1456.95 C 438.787 1457.68 432.53 1458.05 427.2 1458.51 C 422.643 1459.02 417.568 1459.86 412.98 1460.51 L 412.862 1418.68 L 431.745 1418.48 z"/>
<path fill="rgb(224,16,8)" d="M 914.054 1424.17 C 924.338 1425.16 934.644 1425.89 944.964 1426.38 C 944.581 1438.03 944.717 1450.53 944.632 1462.24 C 934.39 1461.23 924.132 1460.39 913.862 1459.71 C 913.787 1447.95 913.984 1435.96 914.054 1424.17 z"/>
<path fill="url(#Gradient6)" d="M 376.501 1432.09 C 385.946 1432.08 395.492 1431.88 404.945 1431.76 C 404.919 1438.17 406.437 1456.84 403.79 1461.58 L 400.764 1462.26 C 393.163 1463.11 384.181 1464.79 376.512 1466.06 L 376.501 1432.09 z"/>
<path fill="rgb(250,187,11)" d="M 451.286 1583.06 C 458.24 1582.23 463.689 1582.55 468.004 1589.03 C 469.899 1591.82 470.517 1595.29 469.707 1598.57 C 468.355 1604.16 465.885 1605.56 461.359 1608.11 C 440.601 1609.64 434.983 1592.3 451.286 1583.06 z"/>
<path fill="rgb(5,5,4)" d="M 453.417 1588.55 C 457.277 1587.06 461.625 1588.89 463.249 1592.7 C 464.873 1596.51 463.189 1600.92 459.44 1602.67 C 456.898 1603.86 453.91 1603.57 451.647 1601.91 C 449.383 1600.25 448.205 1597.49 448.574 1594.71 C 448.942 1591.92 450.799 1589.56 453.417 1588.55 z"/>
<path fill="rgb(250,187,11)" d="M 478.629 1582.97 C 513.041 1581.44 494.892 1591.64 496.83 1602.2 C 498.244 1604.13 499.339 1605.16 499.464 1607.52 L 497.096 1609.55 C 492.512 1607.78 492.117 1604.37 487.498 1600.35 C 484.617 1603.26 485.193 1606.07 480.659 1608.86 L 479.42 1608.15 C 478.356 1604.78 478.644 1587.56 478.629 1582.97 z"/>
<path fill="rgb(5,5,4)" d="M 484.369 1587.75 C 486.947 1587.87 488.529 1588.15 491.082 1588.59 C 493.806 1591.08 492.939 1589.85 494.052 1593.88 C 490.682 1594.85 489.834 1595.35 486.486 1594.85 C 484.312 1592.21 484.851 1591.52 484.369 1587.75 z"/>
<path fill="rgb(250,187,11)" d="M 387.104 1582.87 C 393.855 1582.66 403.079 1581.96 408.456 1586.3 C 410.299 1593.51 404.477 1594.1 404.984 1601.7 C 406.901 1603.95 407.213 1604.12 408.065 1606.87 L 406.302 1609.36 C 398.776 1606.93 401.043 1602.58 395.545 1600.2 C 393.52 1603.71 392.724 1605.13 390.011 1608.32 L 388.436 1608.43 C 386.826 1605.67 387.141 1587.01 387.104 1582.87 z"/>
<path fill="rgb(5,5,4)" d="M 393.002 1587.6 C 396.507 1587.81 397.168 1587.87 400.467 1589.02 C 402.346 1591.7 401.857 1590.52 401.738 1594.24 C 398.6 1594.71 398.063 1594.82 394.938 1594.56 C 392.871 1592.33 393.39 1591.15 393.002 1587.6 z"/>
<path fill="rgb(250,187,11)" d="M 883.841 1582.84 C 891.074 1582.68 896.88 1582.26 903.456 1585.42 C 908.586 1591.95 900.232 1594.12 901.33 1601.54 C 903.298 1603.92 903.5 1604.07 904.587 1606.91 L 903.319 1609.12 C 894.685 1606.39 897.587 1602.12 892.542 1600.3 C 890.473 1603.73 889.049 1606.77 885.899 1609.16 L 884.49 1608.31 C 883.324 1605.33 883.81 1587.45 883.841 1582.84 z"/>
<path fill="rgb(5,5,4)" d="M 889.946 1587.47 C 893.232 1587.77 893.948 1587.97 897.078 1589.04 C 899.296 1591.69 898.716 1590.42 898.765 1594.36 C 895.489 1594.81 894.759 1595.05 891.557 1594.55 C 889.479 1591.72 890.115 1591.41 889.946 1587.47 z"/>
<path fill="rgb(252,208,9)" d="M 936.251 1591.1 C 936.308 1595.32 937.172 1605.56 933.755 1608 C 929.133 1604.1 926.819 1587.42 933.144 1582.99 C 941.91 1583.39 941.673 1592.41 948.318 1596.67 C 948.114 1591.78 947.44 1587.52 949.698 1583.22 L 951.013 1582.14 C 956.473 1586.99 955.46 1601.05 954.174 1607.89 L 950.475 1608.11 C 944.879 1606.21 939.544 1596.27 936.251 1591.1 z"/>
<path fill="rgb(250,187,11)" d="M 948.318 1596.67 C 948.114 1591.78 947.44 1587.52 949.698 1583.22 L 951.013 1582.14 C 956.473 1586.99 955.46 1601.05 954.174 1607.89 C 950.232 1604.31 952.397 1599.96 948.318 1596.67 z"/>
<path fill="rgb(250,187,11)" d="M 581.208 1582.59 C 590.854 1582.69 594.097 1591.3 599.28 1598.78 C 599.295 1592.15 599.047 1589.2 600.97 1582.94 L 602.82 1582.32 C 606.251 1589.4 605.359 1600.56 605.129 1608.44 C 604.488 1608.4 603.846 1608.35 603.204 1608.3 L 602.417 1608.21 C 596.66 1607.58 590.848 1597.36 587.58 1592.66 C 587.669 1596.9 588.278 1603.45 586.46 1607 C 583.987 1608.43 585.122 1608.16 581.895 1607.55 C 580.37 1604 581.117 1587.29 581.208 1582.59 z"/>
<path fill="rgb(250,187,11)" d="M 800.049 1592.51 C 800.027 1596.53 801.057 1606.98 797.234 1608.56 C 792.957 1604.65 790.886 1587.13 796.629 1582.83 C 802.977 1583.69 806.587 1592.07 811.881 1598.37 C 811.801 1593.2 811.376 1587.61 812.921 1582.74 L 815.087 1582.3 C 817.842 1587.71 820.75 1603.67 816.819 1608.58 C 812.849 1609.73 809.003 1604.96 806.801 1601.97 L 800.049 1592.51 z"/>
<path fill="rgb(250,187,11)" d="M 712.879 1582.59 C 722.942 1582.75 726.133 1591.57 731.107 1599.44 C 731.017 1594.41 729.648 1585.7 733.885 1582.87 L 736.171 1583.42 C 737.731 1587.57 736.997 1603.26 736.9 1608.5 C 727.363 1608.02 723.927 1599.3 718.951 1591.8 C 719.105 1596.24 719.995 1604.12 717.832 1607.64 C 714.621 1608.16 716.055 1608.41 713.338 1607.33 C 711.997 1601.67 712.72 1589.06 712.879 1582.59 z"/>
<path fill="rgb(250,187,11)" d="M 330.564 1582.83 C 336.53 1582.8 341.254 1581.74 346.911 1584.76 C 354.9 1589.02 354.425 1598.5 344.712 1600.17 C 342.749 1600.37 341.041 1600.66 339.108 1600.98 C 337.627 1603.59 334.662 1608.26 331.535 1608.49 C 330.013 1605.17 330.542 1587.42 330.564 1582.83 z M 343.516 1595.38 C 344.798 1594.42 345.441 1592.82 345.186 1591.24 C 344.932 1589.66 343.821 1588.35 342.302 1587.84 C 340.784 1587.34 339.108 1587.71 337.953 1588.82 C 336.309 1590.4 336.176 1592.98 337.649 1594.72 C 339.123 1596.45 341.693 1596.74 343.516 1595.38 z"/>
<path fill="rgb(5,5,4)" fill-opacity="0.988235" d="M 337.953 1588.82 C 339.108 1587.71 340.784 1587.34 342.302 1587.84 C 343.821 1588.35 344.932 1589.66 345.186 1591.24 C 345.441 1592.82 344.798 1594.42 343.516 1595.38 C 341.693 1596.74 339.123 1596.45 337.649 1594.72 C 336.176 1592.98 336.309 1590.4 337.953 1588.82 z"/>
<path fill="rgb(250,187,11)" d="M 556.968 1582.69 C 559.872 1582.83 562.617 1582.36 564.228 1584.64 C 568.497 1590.68 572.542 1599.71 571.512 1607.07 L 569.913 1608.12 C 566.371 1606.94 567.458 1607.27 564.748 1603.77 C 555.523 1603.15 553.878 1607.48 547.942 1606.86 L 547.261 1605.22 C 550.139 1597.79 553.693 1589.99 556.968 1582.69 z"/>
<path fill="rgb(250,187,11)" d="M 523.684 1596.82 C 526.85 1591.69 530.535 1583.37 536.866 1582.52 C 541.922 1586.83 539.959 1605.3 535.799 1608.5 C 531.829 1605.67 532.961 1596.93 533.139 1592.35 C 531.111 1596.21 528.66 1602.36 524.992 1604.04 C 519.08 1602.42 518.361 1597.36 514.586 1592.64 C 513.051 1589.97 512.477 1588.69 511.351 1585.82 L 509.321 1586.04 C 510.056 1583.24 509.497 1583.84 511.302 1582 C 518.729 1583.57 520.692 1590.31 523.684 1596.82 z"/>
<path fill="rgb(250,187,11)" d="M 971.899 1582.96 C 976.394 1582.44 982.969 1581.88 986.008 1585.5 L 985.692 1587.92 C 983.157 1589.39 979.505 1588.09 976.576 1588.26 C 967.452 1588.79 966.696 1598.5 974.018 1603.37 C 977.888 1604.05 976.354 1604.23 979.882 1602.88 C 982.496 1599.52 981.737 1599.86 982.306 1595.05 C 983.517 1595.48 984.896 1596.13 986.093 1596.66 C 987.84 1599.54 987.46 1604.4 985.712 1607.15 C 974.099 1613.95 947.34 1598.83 971.899 1582.96 z"/>
<path fill="rgb(250,187,11)" d="M 684.771 1582.8 C 688.013 1582.74 701.707 1582.46 703.874 1585.32 L 702.999 1587.08 C 699.384 1587.47 695.775 1587.92 692.175 1588.43 L 691.398 1590.08 C 694.55 1593.14 701.016 1593.45 702.887 1596.52 C 698.942 1597.92 695.64 1597.73 691.448 1597.86 C 691.442 1599.71 691.655 1601.2 691.871 1603.01 C 696.986 1605.44 700.478 1601.22 704.478 1605.46 L 703.826 1606.94 C 700.206 1608.96 689.687 1608.12 684.905 1608.05 L 684.771 1582.8 z"/>
<path fill="rgb(250,187,11)" d="M 753.79 1583.06 C 759.411 1582.47 764.539 1581.19 768.05 1586.46 C 765.544 1592.24 753.039 1584.48 750.566 1594.55 C 751.433 1598.18 751.38 1598.75 753.54 1601.66 C 756.818 1603.47 757.246 1603.61 760.977 1603.81 C 763.419 1601.94 763.387 1598.88 764.437 1595.11 C 769.629 1597.39 769.458 1602.86 767.073 1607.28 C 755.821 1613.59 730.138 1597.94 753.79 1583.06 z"/>
<path fill="rgb(250,187,11)" d="M 855.255 1582.9 C 862.512 1582.67 866.447 1582.87 873.645 1583.53 L 874.295 1584.83 C 869.817 1588.63 865.371 1587.17 862.259 1589.68 L 862.152 1592.95 C 862.244 1594.41 862.445 1596.47 862.414 1597.87 C 862.017 1599.56 862.191 1600.7 862.291 1602.42 C 866.935 1605.49 873.312 1600.41 875.433 1605.72 L 874.454 1606.99 C 870.716 1609.01 860.2 1608.14 855.323 1608.06 L 855.255 1582.9 z"/>
<path fill="rgb(250,187,11)" d="M 621.908 1583.22 C 629.106 1582.25 629.843 1581.37 635.706 1585.05 L 635.584 1587.87 L 636.413 1585.95 L 636.448 1587.05 C 630.863 1590.98 623.833 1586.04 619.035 1593.71 C 619.193 1603.14 627.414 1603.51 634.315 1602.78 L 635.016 1602.74 C 636.313 1605.11 636.069 1603.84 635.49 1606.71 C 621.268 1615.96 603.662 1596.26 621.908 1583.22 z"/>
<path fill="rgb(250,187,11)" d="M 644.02 1582.87 C 649.021 1582.8 658.875 1582.09 663.004 1584.23 C 660.929 1588.74 654.233 1586.91 650.393 1589.69 L 650.501 1593.12 L 650.529 1597.91 C 650.065 1600.05 650.224 1600.27 650.52 1602.38 C 654.096 1604.47 657.56 1603.69 662.212 1603.69 L 663.309 1605.11 L 662.787 1607.33 C 659.726 1608.69 648.012 1608.07 643.93 1608.02 L 644.02 1582.87 z"/>
<path fill="rgb(250,187,11)" d="M 827.725 1582.82 C 834.067 1582.73 839.464 1582.99 845.766 1583.33 L 846.599 1585.18 C 842.259 1587.24 835.94 1588.27 834.298 1589.62 L 834.458 1593.03 C 834.585 1594.65 834.767 1596.15 834.699 1597.77 C 834.022 1599.99 834.177 1600.2 834.342 1602.46 C 838.581 1605.84 842.834 1601.7 847.067 1604.99 L 846.64 1606.77 C 843.354 1609.06 832.346 1608.1 827.604 1608.03 L 827.725 1582.82 z"/>
<path fill="rgb(250,187,11)" d="M 417.125 1582.91 C 423.145 1582.84 431.603 1581.72 435.769 1584.86 L 435.666 1586.58 C 432.265 1588.91 430.187 1587.52 424.924 1588.2 C 423.398 1590.23 423.979 1590.38 424.017 1593.63 L 424.354 1598.52 C 424.114 1602.79 424.71 1605.47 422.226 1608.09 L 419.901 1608.02 C 415.325 1603.33 417.034 1590.39 417.125 1582.91 z"/>
<path fill="rgb(250,187,11)" d="M 360.72 1582.86 C 365.283 1582.77 375.661 1582.45 379.626 1583.99 C 375.776 1588.1 370.039 1587.12 366.327 1589.68 L 366.335 1593.05 L 366.585 1597.96 C 366.412 1599.7 366.085 1602.23 366.06 1603.9 C 363.352 1606.1 363.403 1605.31 363.062 1607.87 C 361.589 1607.61 362.29 1607.79 360.94 1606.47 C 360.034 1599.27 360.544 1590.25 360.72 1582.86 z"/>
<path fill="rgb(250,187,11)" d="M 777.34 1582.29 C 778.843 1582.52 782.107 1582.64 782.611 1583.59 C 785.212 1588.51 783.9 1602.81 783.789 1608.7 L 779.397 1607.95 C 775.72 1603.45 777.253 1589.11 777.34 1582.29 z"/>
<path fill="rgb(252,208,9)" d="M 914.942 1582.08 C 918.23 1582.8 917.502 1582.15 919.499 1584.24 C 921.099 1591.48 920.298 1601.21 920.112 1608.87 L 916.475 1607.99 C 913.125 1603.54 914.735 1588.59 914.942 1582.08 z"/>
<path fill="rgb(250,187,11)" d="M 509.321 1586.04 L 511.351 1585.82 C 512.477 1588.69 513.051 1589.97 514.586 1592.64 C 515.341 1598.19 515.904 1602.68 514.074 1607.94 L 511.79 1608.78 C 507.985 1601.99 509.058 1593.78 509.321 1586.04 z"/>
<path fill="rgb(252,208,9)" d="M 366.06 1603.9 C 370.133 1603.69 374.725 1602.97 378.23 1604.83 L 378.562 1606.16 C 373.764 1609.1 368.736 1608.16 363.062 1607.87 C 363.403 1605.31 363.352 1606.1 366.06 1603.9 z"/>
<path fill="rgb(252,208,9)" d="M 650.501 1593.12 C 654.674 1593.11 657.932 1592.53 661.101 1594.91 L 660.998 1596.5 C 657.895 1598.63 654.499 1598 650.529 1597.91 L 650.501 1593.12 z"/>
<path fill="rgb(252,208,9)" d="M 862.152 1592.95 C 865.936 1592.97 869.317 1592.59 872.412 1594.76 L 872.82 1596.26 C 870.072 1598.31 868.952 1597.83 865.332 1597.85 L 862.414 1597.87 C 862.445 1596.47 862.244 1594.41 862.152 1592.95 z"/>
<path fill="rgb(252,208,9)" d="M 366.335 1593.05 C 370.336 1593.07 373.48 1592.53 376.458 1594.88 L 376.352 1596.3 C 373.386 1598.39 370.376 1597.92 366.585 1597.96 L 366.335 1593.05 z"/>
<path fill="rgb(250,187,11)" d="M 424.017 1593.63 C 429.528 1593.77 429.284 1592.96 433.477 1595.42 L 433.533 1597.17 C 430.135 1599.19 428.722 1598.59 424.354 1598.52 L 424.017 1593.63 z"/>
<path fill="rgb(80,49,12)" d="M 389.914 1571.04 C 383.853 1571.27 373.697 1571.07 367.828 1569.84 C 373.147 1568.76 384.512 1568.56 389.945 1569.03 L 389.914 1571.04 z"/>
<path fill="rgb(252,208,9)" d="M 834.458 1593.03 C 838.572 1593.17 841.406 1592.73 844.435 1595.27 L 844.055 1596.77 C 840.863 1598.37 838.336 1597.89 834.699 1597.77 C 834.767 1596.15 834.585 1594.65 834.458 1593.03 z"/>
<path fill="url(#Gradient1)" d="M 724.711 1096.42 C 716.1 1143.73 739.873 1164.31 754.645 1206.35 C 756.353 1201.2 764.474 1185.84 769.875 1184.79 C 773.022 1188.5 771.256 1219 783.098 1232.99 C 769.009 1234.25 752.578 1233.4 738.198 1233.2 C 738.215 1239.86 739.17 1271.55 736.552 1275.28 L 734.566 1274.9 C 730.083 1273.09 727.482 1273.84 722.409 1273.63 C 719.159 1271.28 721.051 1259.62 719.996 1254.58 C 718.837 1249.05 717.684 1245.31 715.822 1240.04 C 715.166 1242.52 717.063 1268.05 717 1273.69 L 703.756 1273.49 C 699.474 1247.44 680.956 1241.73 679.082 1230.58 C 700.97 1246.12 691.847 1203.8 688.653 1196.38 C 687.257 1193.13 685.799 1183.94 685.905 1180.37 C 683.912 1142.33 693.631 1118.65 724.711 1096.42 z"/>
<path fill="rgb(250,187,11)" d="M 685.905 1180.37 C 690.16 1171.64 686.721 1162.97 688.331 1154.04 C 689.518 1147.45 697.42 1123.18 702.734 1120.58 C 701.923 1123.77 701.811 1123.62 700.587 1126.48 C 692.471 1145.45 693.831 1172.78 699.499 1191.96 C 701.961 1200.29 717.118 1233.86 715.822 1240.04 C 715.166 1242.52 717.063 1268.05 717 1273.69 L 703.756 1273.49 C 699.474 1247.44 680.956 1241.73 679.082 1230.58 C 700.97 1246.12 691.847 1203.8 688.653 1196.38 C 687.257 1193.13 685.799 1183.94 685.905 1180.37 z"/>
<path fill="rgb(254,254,77)" d="M 714.53 1106.37 L 716.141 1107.34 C 717.036 1113.28 711.161 1123.67 713.82 1139.1 C 716.529 1154.82 725.53 1165.04 726.95 1176.41 L 725.713 1177.52 C 725.228 1173.88 725.333 1171.57 723.048 1168.76 C 720.193 1168.12 716.165 1170.58 713.259 1171.93 C 707.875 1174.63 702.441 1174.7 699.92 1177.14 L 699.903 1180.58 L 699.054 1180.01 C 698.133 1173.56 695.933 1168.42 696.011 1161.83 C 696.266 1140.06 701.786 1123.7 714.53 1106.37 z"/>
<path fill="rgb(254,158,1)" fill-opacity="0.0156863" d="M 451.371 1382.95 C 453.739 1383.17 454.52 1382.99 456.618 1383.96 C 455.706 1386.42 455.42 1386.96 454.058 1389.21 C 452.104 1387.72 452.152 1385.79 451.371 1382.95 z"/>
</svg>
